<svg height="74" width="130" xmlns="http://www.w3.org/2000/svg" xmlns:xlink="http://www.w3.org/1999/xlink"><defs><marker id="triangle" viewBox="0 0 14 14" refX="0" refY="5" markerUnits="strokeWidth" markerWidth="10" markerHeight="10" orient="auto"><path d="M 0 0 L 10 5 L 0 10 z"></path></marker></defs><path d="M 8 8 A 4 4 0 0 0 4 12" stroke="black" stroke-width="1" fill="transparent"></path><line x1="4" x2="4" y1="12" y2="16" stroke="rgb(0,0,0)" stroke-width="1" stroke-linecap="round" stroke-linejoin="mitter"></line><line x1="8" x2="16" y1="8" y2="8" stroke="rgb(0,0,0)" stroke-width="1" stroke-linecap="round" stroke-linejoin="mitter"></line><line x1="16" x2="24" y1="8" y2="8" stroke="rgb(0,0,0)" stroke-width="1" stroke-linecap="round" stroke-linejoin="mitter"></line><line x1="24" x2="32" y1="8" y2="8" stroke="rgb(0,0,0)" stroke-width="1" stroke-linecap="round" stroke-linejoin="mitter"></line><line x1="32" x2="40" y1="8" y2="8" stroke="rgb(0,0,0)" stroke-width="1" stroke-linecap="round" stroke-linejoin="mitter"></line><line x1="40" x2="48" y1="8" y2="8" stroke="rgb(0,0,0)" stroke-width="1" stroke-linecap="round" stroke-linejoin="mitter"></line><line x1="48" x2="56" y1="8" y2="8" stroke="rgb(0,0,0)" stroke-width="1" stroke-linecap="round" stroke-linejoin="mitter"></line><line x1="56" x2="64" y1="8" y2="8" stroke="rgb(0,0,0)" stroke-width="1" stroke-linecap="round" stroke-linejoin="mitter"></line><line x1="64" x2="72" y1="8" y2="8" stroke="rgb(0,0,0)" stroke-width="1" stroke-linecap="round" stroke-linejoin="mitter"></line><line x1="72" x2="80" y1="8" y2="8" stroke="rgb(0,0,0)" stroke-width="1" stroke-linecap="round" stroke-linejoin="mitter"></line><line x1="80" x2="88" y1="8" y2="8" stroke="rgb(0,0,0)" stroke-width="1" stroke-linecap="round" stroke-linejoin="mitter"></line><line x1="88" x2="96" y1="8" y2="8" stroke="rgb(0,0,0)" stroke-width="1" stroke-linecap="round" stroke-linejoin="mitter"></line><line x1="96" x2="104" y1="8" y2="8" stroke="rgb(0,0,0)" stroke-width="1" stroke-linecap="round" stroke-linejoin="mitter"></line><line x1="104" x2="112" y1="8" y2="8" stroke="rgb(0,0,0)" stroke-width="1" stroke-linecap="round" stroke-linejoin="mitter"></line><path d="M 116 12 A 4 4 0 0 0 112 8" stroke="black" stroke-width="1" fill="transparent"></path><line x1="116" x2="116" y1="12" y2="16" stroke="rgb(0,0,0)" stroke-width="1" stroke-linecap="round" stroke-linejoin="mitter"></line><line x1="4" x2="4" y1="16" y2="32" stroke="rgb(0,0,0)" stroke-width="1" stroke-linecap="round" stroke-linejoin="mitter"></line><text x="14" y="28" style="font-size:14px;font-family:monospace">H</text><text x="22" y="28" style="font-size:14px;font-family:monospace">e</text><text x="30" y="28" style="font-size:14px;font-family:monospace">l</text><text x="38" y="28" style="font-size:14px;font-family:monospace">l</text><text x="46" y="28" style="font-size:14px;font-family:monospace">o</text><text x="62" y="28" style="font-size:14px;font-family:monospace">W</text><text x="70" y="28" style="font-size:14px;font-family:monospace">o</text><text x="78" y="28" style="font-size:14px;font-family:monospace">r</text><text x="86" y="28" style="font-size:14px;font-family:monospace">l</text><text x="94" y="28" style="font-size:14px;font-family:monospace">d</text><line x1="116" x2="116" y1="16" y2="32" stroke="rgb(0,0,0)" stroke-width="1" stroke-linecap="round" stroke-linejoin="mitter"></line><line x1="4" x2="4" y1="32" y2="48" stroke="rgb(0,0,0)" stroke-width="1" stroke-linecap="round" stroke-linejoin="mitter"></line><path d="M 80 40 A 8 8 0 0 0 74 44" stroke="black" stroke-width="1" fill="transparent"></path><line x1="72" x2="74" y1="48" y2="44" stroke="rgb(0,0,0)" stroke-width="1" stroke-linecap="round" stroke-linejoin="mitter"></line><line x1="80" x2="88" y1="40" y2="40" stroke="rgb(0,0,0)" stroke-width="1" stroke-linecap="round" stroke-linejoin="mitter"></line><line x1="88" x2="96" y1="40" y2="40" stroke="rgb(0,0,0)" stroke-width="1" stroke-linecap="round" stroke-linejoin="mitter"></line><line x1="96" x2="104" y1="40" y2="40" stroke="rgb(0,0,0)" stroke-width="1" stroke-linecap="round" stroke-linejoin="mitter"></line><line x1="104" x2="112" y1="40" y2="40" stroke="rgb(0,0,0)" stroke-width="1" stroke-linecap="round" stroke-linejoin="mitter"></line><line x1="116" x2="116" y1="32" y2="40" stroke="rgb(0,0,0)" stroke-width="1" stroke-linecap="round" stroke-linejoin="mitter"></line><line x1="112" x2="116" y1="40" y2="40" stroke="rgb(0,0,0)" stroke-width="1" stroke-linecap="round" stroke-linejoin="mitter"></line><line x1="4" x2="4" y1="48" y2="64" stroke="rgb(0,0,0)" stroke-width="1" stroke-linecap="round" stroke-linejoin="mitter"></line><line x1="4" x2="16" y1="64" y2="64" stroke="rgb(0,0,0)" stroke-width="1" stroke-linecap="round" stroke-linejoin="mitter"></line><line x1="16" x2="24" y1="64" y2="64" stroke="rgb(0,0,0)" stroke-width="1" stroke-linecap="round" stroke-linejoin="mitter"></line><line x1="24" x2="32" y1="64" y2="64" stroke="rgb(0,0,0)" stroke-width="1" stroke-linecap="round" stroke-linejoin="mitter"></line><line x1="32" x2="40" y1="64" y2="64" stroke="rgb(0,0,0)" stroke-width="1" stroke-linecap="round" stroke-linejoin="mitter"></line><line x1="40" x2="48" y1="64" y2="64" stroke="rgb(0,0,0)" stroke-width="1" stroke-linecap="round" stroke-linejoin="mitter"></line><line x1="48" x2="56" y1="64" y2="64" stroke="rgb(0,0,0)" stroke-width="1" stroke-linecap="round" stroke-linejoin="mitter"></line><line x1="56" x2="64" y1="64" y2="64" stroke="rgb(0,0,0)" stroke-width="1" stroke-linecap="round" stroke-linejoin="mitter"></line><line x1="64" x2="72" y1="64" y2="48" stroke="rgb(0,0,0)" stroke-width="1" stroke-linecap="round" stroke-linejoin="mitter"></line></svg>
